# xmcd
#
# Track frame offsets:
#	150
#	12727
#	26762
#	41347
#	52452
#	70065
#	78745
#	90857
#	105512
#	122225
#	130322
#	143150
#
# Disc length: 2110 seconds
#
# Revision: 1
# Processed by: cddbd v1.5.2PL0 Copyright (c) Steve Scherf et al.
# Submitted via: audiograbber 1.83.01
#
DISCID=a7083c0c
DTITLE=New Swing Quartet - For You
DYEAR=1982
DGENRE=Gospel
TTITLE0=Down By The Riverside
TTITLE1=Invisible Hands
TTITLE2=He Touched Me
TTITLE3=What A Time
TTITLE4=I Pitched My Tent
TTITLE5=It's Me, Oh Lord
TTITLE6=Take My Hand, Precious Lord
TTITLE7=Gold Almighty Is Gonna Cut You Down
TTITLE8=Go Down Moses
TTITLE9=Old Time Religion
TTITLE10=Swing Down Sweet Chariot - Swing Low
TTITLE11=How Great Thou Art
EXTD=
EXTT0=
EXTT1=
EXTT2=
EXTT3=
EXTT4=
EXTT5=
EXTT6=
EXTT7=
EXTT8=
EXTT9=
EXTT10=
EXTT11=
PLAYORDER=
